<svg id="Layer_1" data-name="Layer 1" xmlns="http://www.w3.org/2000/svg" viewBox="0 0 300 300"><defs><style>.cls-1{fill:#fff;}.cls-2{fill:#2b2b2b;}</style></defs><title>favicon</title><path class="cls-1" d="M293,174.3l-44.41-26.59,1.8-54.49L177.85,49.8,164.67,75.92,95,34.18,38.72,145.44A348.29,348.29,0,0,1,5.83,198.18L0,205.93l100.11,59.89,34-67.17,48.3,28.88,14-27.72,33.47,20c25.31,13.91,35,16.41,42.93,16.31A26.35,26.35,0,0,0,299,212.49l1-25.34A14.35,14.35,0,0,0,293,174.3Z"/><path class="cls-2" d="M96.54,253.54,12.8,203.44a359.67,359.67,0,0,0,33.7-54.08L98.55,46.46l78.86,47.23Z"/><polygon class="cls-2" points="189.86 193.54 185.95 88.64 172.16 80.39 181.42 62.08 238.95 96.53 189.86 193.54"/><path class="cls-2" d="M290.36,211.91a17.44,17.44,0,0,1-17.51,15.53c-5,0-17.62-3.14-17.62-17.24l1.57-47.43,31.73,19a5.72,5.72,0,0,1,2.75,5.08Z"/></svg>